<svg width="1254" height="537" viewBox="0 0 1254 537" fill="none" xmlns="http://www.w3.org/2000/svg">
<path d="M169.425 213L95.0002 255.405V343.675L169.425 386.08L244.282 343.675V255.405L169.425 213Z" fill="#148D9D"/>
<path d="M83.4246 363L9.00018 405.405V493.675L83.4246 536.08L158.282 493.675V405.405L83.4246 363Z" fill="#148D9D"/>
<path d="M1172.78 360L1098.36 402.405V490.675L1172.78 533.08L1247.64 490.675V402.405L1172.78 360Z" fill="#148D9D"/>
<path d="M1083.42 213L1009 255.405V343.675L1083.42 386.08L1158.28 343.675V255.405L1083.42 213Z" fill="#148D9D"/>
<path d="M1168.42 65L1094 107.405V195.675L1168.42 238.08L1243.28 195.675V107.405L1168.42 65Z" fill="#FFC116"/>
<path d="M998.424 65L924 107.405V195.675L998.424 238.08L1073.28 195.675V107.405L998.424 65Z" fill="#148D9D"/>
<path d="M257.425 363L183 405.405V493.675L257.425 536.08L332.282 493.675V405.405L257.425 363Z" fill="#148D9D"/>
<path d="M83.4246 65L9.00018 107.405V195.675L83.4246 238.08L158.282 195.675V107.405L83.4246 65Z" fill="#148D9D"/>
<path d="M37.2121 238L-0.000152111 259.202V303.338L37.2121 324.54L74.6406 303.338V259.202L37.2121 238Z" fill="#FFC116"/>
<path d="M1041.21 386L1004 407.202V451.338L1041.21 472.54L1078.64 451.338V407.202L1041.21 386Z" fill="#FFC116"/>
<path d="M1083.21 0L1046 21.2023V65.3377L1083.21 86.54L1120.64 65.3377V21.2023L1083.21 0Z" fill="#148D9D"/>
<path d="M1216.21 233L1179 254.202V298.338L1216.21 319.54L1253.64 298.338V254.202L1216.21 233Z" fill="#148D9D"/>
</svg>
