<svg width="769" height="690" viewBox="0 0 769 690" fill="none" xmlns="http://www.w3.org/2000/svg">
<path d="M647.493 567.058L594.881 597.035V659.435L647.493 689.411L700.41 659.435V597.035L647.493 567.058Z" fill="#148D9D"/>
<path d="M409.491 422.697L383.186 437.685V468.885L409.491 483.873L435.95 468.885V437.685L409.491 422.697Z" fill="#148D9D"/>
<path d="M289.74 422.697L263.435 437.685V468.885L289.74 483.873L316.199 468.885V437.685L289.74 422.697Z" fill="#FFC116"/>
<path d="M742.541 207.191L716.235 222.179V253.379L742.541 268.367L769 253.379V222.179L742.541 207.191Z" fill="#FFC116"/>
<path d="M174.263 569.646L147.957 584.634V615.834L174.263 630.823L200.722 615.834V584.634L174.263 569.646Z" fill="#148D9D"/>
<path d="M26.3059 514.421L8.39233e-05 529.41V560.609L26.3059 575.598L52.7646 560.609V529.41L26.3059 514.421Z" fill="#FFC116"/>
<path d="M61.9748 569.646L35.669 584.634V615.834L61.9748 630.823L88.4336 615.834V584.634L61.9748 569.646Z" fill="#FFC116"/>
<path d="M290.749 569.646L264.443 584.634V615.834L290.749 630.823L317.208 615.834V584.634L290.749 569.646Z" fill="#FFC116"/>
<path d="M61.9748 422.697L35.669 437.685V468.885L61.9748 483.873L88.4336 468.885V437.685L61.9748 422.697Z" fill="#FFC116"/>
<path d="M693.932 0L667.626 14.9882V46.1881L693.932 61.1763L720.391 46.1881V14.9882L693.932 0Z" fill="#FFC116"/>
<path d="M727.632 54.6111L701.326 69.5993V100.799L727.632 115.787L754.091 100.799V69.5993L727.632 54.6111Z" fill="#FFC116"/>
<path d="M693.932 109.728L667.626 124.716V155.916L693.932 170.904L720.391 155.916V124.716L693.932 109.728Z" fill="#148D9D"/>
<path d="M527.774 569.646L501.468 584.634V615.834L527.774 630.823L554.232 615.834V584.634L527.774 569.646Z" fill="#148D9D"/>
<path d="M487.123 310.076L460.817 325.064V356.264L487.123 371.252L513.582 356.264V325.064L487.123 310.076Z" fill="#148D9D"/>
<path d="M702.183 260.468L649.571 290.444V352.844L702.183 382.821L755.101 352.844V290.444L702.183 260.468Z" fill="#FFC116"/>
<path d="M584.686 260.468L532.074 290.444V352.844L584.686 382.821L637.604 352.844V290.444L584.686 260.468Z" fill="#148D9D"/>
<path d="M643.334 363.142L590.723 393.118V455.518L643.334 485.494L696.252 455.518V393.118L643.334 363.142Z" fill="#148D9D"/>
<path d="M115.621 465.653L63.009 495.63V558.03L115.621 588.006L168.538 558.03V495.63L115.621 465.653Z" fill="#148D9D"/>
<path d="M585.483 465.653L532.871 495.63V558.03L585.483 588.006L638.4 558.03V495.63L585.483 465.653Z" fill="#148D9D"/>
<path d="M350.151 465.653L297.539 495.63V558.03L350.151 588.006L403.068 558.03V495.63L350.151 465.653Z" fill="#148D9D"/>
<path d="M408.405 567.058L355.793 597.035V659.435L408.405 689.411L461.322 659.435V597.035L408.405 567.058Z" fill="#148D9D"/>
<path d="M643.334 155.831L590.723 185.808V248.208L643.334 278.184L696.252 248.208V185.808L643.334 155.831Z" fill="#FFC116"/>
<path d="M643.334 155.831L590.723 185.808V248.208L643.334 278.184L696.252 248.208V185.808L643.334 155.831Z" fill="#FFC116"/>
<path d="M643.334 155.831L590.723 185.808V248.208L643.334 278.184L696.252 248.208V185.808L643.334 155.831Z" fill="#FFC116"/>
<path d="M643.334 155.831L590.723 185.808V248.208L643.334 278.184L696.252 248.208V185.808L643.334 155.831Z" fill="#FFC116"/>
<path d="M643.334 155.831L590.723 185.808V248.208L643.334 278.184L696.252 248.208V185.808L643.334 155.831Z" fill="#FFC116"/>
<path d="M232.982 465.653L180.37 495.63V558.03L232.982 588.006L285.899 558.03V495.63L232.982 465.653Z" fill="#FFC116"/>
<path d="M232.982 465.653L180.37 495.63V558.03L232.982 588.006L285.899 558.03V495.63L232.982 465.653Z" fill="#FFC116"/>
<path d="M232.982 465.653L180.37 495.63V558.03L232.982 588.006L285.899 558.03V495.63L232.982 465.653Z" fill="#FFC116"/>
<path d="M232.982 465.653L180.37 495.63V558.03L232.982 588.006L285.899 558.03V495.63L232.982 465.653Z" fill="#FFC116"/>
<path d="M232.982 465.653L180.37 495.63V558.03L232.982 588.006L285.899 558.03V495.63L232.982 465.653Z" fill="#FFC116"/>
<path d="M468.627 465.653L416.016 495.63V558.03L468.627 588.006L521.545 558.03V495.63L468.627 465.653Z" fill="#FFC116"/>
<path d="M468.627 465.653L416.016 495.63V558.03L468.627 588.006L521.545 558.03V495.63L468.627 465.653Z" fill="#FFC116"/>
<path d="M468.627 465.653L416.016 495.63V558.03L468.627 588.006L521.545 558.03V495.63L468.627 465.653Z" fill="#FFC116"/>
<path d="M468.627 465.653L416.016 495.63V558.03L468.627 588.006L521.545 558.03V495.63L468.627 465.653Z" fill="#FFC116"/>
<path d="M468.627 465.653L416.016 495.63V558.03L468.627 588.006L521.545 558.03V495.63L468.627 465.653Z" fill="#FFC116"/>
<path d="M527.231 363.142L474.619 393.118V455.518L527.231 485.494L580.148 455.518V393.118L527.231 363.142Z" fill="#FFC116"/>
<path d="M527.231 363.142L474.619 393.118V455.518L527.231 485.494L580.148 455.518V393.118L527.231 363.142Z" fill="#FFC116"/>
<path d="M527.231 363.142L474.619 393.118V455.518L527.231 485.494L580.148 455.518V393.118L527.231 363.142Z" fill="#FFC116"/>
<path d="M527.231 363.142L474.619 393.118V455.518L527.231 485.494L580.148 455.518V393.118L527.231 363.142Z" fill="#FFC116"/>
<path d="M527.231 363.142L474.619 393.118V455.518L527.231 485.494L580.148 455.518V393.118L527.231 363.142Z" fill="#FFC116"/>
</svg>
