<svg width="785" height="704" viewBox="0 0 785 704" fill="none" xmlns="http://www.w3.org/2000/svg">
<path d="M660.813 578.992L607.169 609.556V673.18L660.813 703.745L714.769 673.18V609.556L660.813 578.992Z" fill="#148D9D"/>
<path d="M418.142 431.798L391.32 447.08V478.892L418.142 494.175L445.12 478.892V447.08L418.142 431.798Z" fill="#148D9D"/>
<path d="M296.041 431.798L269.219 447.08V478.892L296.041 494.175L323.019 478.892V447.08L296.041 431.798Z" fill="#FFC116"/>
<path d="M757.726 212.064L730.904 227.346V259.158L757.726 274.441L784.704 259.158V227.346L757.726 212.064Z" fill="#FFC116"/>
<path d="M178.298 581.63L151.476 596.913V628.725L178.298 644.007L205.276 628.725V596.913L178.298 581.63Z" fill="#148D9D"/>
<path d="M27.4381 525.322L0.616213 540.605V572.417L27.4381 587.699L54.416 572.417V540.605L27.4381 525.322Z" fill="#FFC116"/>
<path d="M63.8068 581.63L36.9849 596.913V628.725L63.8068 644.007L90.7847 628.725V596.913L63.8068 581.63Z" fill="#FFC116"/>
<path d="M297.07 581.63L270.248 596.913V628.725L297.07 644.007L324.048 628.725V596.913L297.07 581.63Z" fill="#FFC116"/>
<path d="M63.8068 431.798L36.9849 447.08V478.892L63.8068 494.175L90.7847 478.892V447.08L63.8068 431.798Z" fill="#FFC116"/>
<path d="M708.163 0.807861L681.341 16.0901V47.9022L708.163 63.1844L735.141 47.9022V16.0901L708.163 0.807861Z" fill="#FFC116"/>
<path d="M742.524 56.4905L715.702 71.7727V103.585L742.524 118.867L769.502 103.585V71.7727L742.524 56.4905Z" fill="#FFC116"/>
<path d="M708.163 112.689L681.341 127.971V159.783L708.163 175.065L735.141 159.783V127.971L708.163 112.689Z" fill="#148D9D"/>
<path d="M538.744 581.63L511.922 596.913V628.725L538.744 644.007L565.722 628.725V596.913L538.744 581.63Z" fill="#148D9D"/>
<path d="M497.297 316.968L470.475 332.25V364.062L497.297 379.344L524.274 364.062V332.25L497.297 316.968Z" fill="#148D9D"/>
<path d="M716.576 266.386L662.932 296.951V360.575L716.576 391.139L770.531 360.575V296.951L716.576 266.386Z" fill="#FFC116"/>
<path d="M596.773 266.386L543.129 296.951V360.575L596.773 391.139L650.729 360.575V296.951L596.773 266.386Z" fill="#148D9D"/>
<path d="M656.573 371.074L602.929 401.639V465.263L656.573 495.827L710.528 465.263V401.639L656.573 371.074Z" fill="#148D9D"/>
<path d="M118.506 475.597L64.8618 506.162V569.786L118.506 600.351L172.461 569.786V506.162L118.506 475.597Z" fill="#148D9D"/>
<path d="M597.586 475.597L543.942 506.162V569.786L597.586 600.351L651.542 569.786V506.162L597.586 475.597Z" fill="#148D9D"/>
<path d="M357.638 475.597L303.994 506.162V569.786L357.638 600.351L411.593 569.786V506.162L357.638 475.597Z" fill="#148D9D"/>
<path d="M417.034 578.992L363.391 609.556V673.18L417.034 703.745L470.99 673.18V609.556L417.034 578.992Z" fill="#148D9D"/>
<path d="M656.573 159.697L602.929 190.261V253.885L656.573 284.45L710.528 253.885V190.261L656.573 159.697Z" fill="#FFC116"/>
<path d="M238.169 475.597L184.525 506.162V569.786L238.169 600.351L292.125 569.786V506.162L238.169 475.597Z" fill="#FFC116"/>
<path d="M478.439 475.597L424.795 506.162V569.786L478.439 600.351L532.395 569.786V506.162L478.439 475.597Z" fill="#FFC116"/>
<path d="M538.191 371.074L484.547 401.639V465.263L538.191 495.827L592.147 465.263V401.639L538.191 371.074Z" fill="#FFC116"/>
</svg>
